<?xml version="1.0" standalone="no"?>
<!DOCTYPE svg PUBLIC "-//W3C//DTD SVG 20010904//EN"
 "http://www.w3.org/TR/2001/REC-SVG-20010904/DTD/svg10.dtd">
<svg version="1.0" xmlns="http://www.w3.org/2000/svg"
 width="800.000000pt" height="800.000000pt" viewBox="0 0 800.000000 800.000000"
 preserveAspectRatio="xMidYMid meet">
<metadata>
Created by potrace 1.11, written by Peter Selinger 2001-2013
</metadata>
<g transform="translate(0.000000,800.000000) scale(0.100000,-0.100000)"
fill="#000000" stroke="none">
<path d="M2180 6886 c-44 -16 -1427 -586 -1503 -619 -96 -43 -89 14 -89 -732
-1 -628 0 -656 18 -676 31 -35 71 -50 109 -43 42 7 85 54 86 92 0 15 1 264 1
555 1 290 4 527 8 527 4 0 51 -18 106 -41 54 -23 119 -49 144 -59 46 -18 661
-272 715 -295 17 -7 77 -32 135 -55 58 -23 128 -52 156 -65 l51 -24 -1 -798
c-1 -703 -3 -798 -16 -796 -8 0 -244 97 -525 213 -285 118 -524 212 -543 213
-67 1 -115 -54 -107 -123 8 -63 2 -59 445 -240 96 -40 189 -78 205 -85 17 -8
143 -59 280 -115 138 -56 264 -108 280 -115 82 -36 117 -33 230 19 17 8 82 35
145 60 63 26 124 51 135 56 24 11 112 47 715 295 468 192 500 208 500 261 0
13 5 24 10 24 6 0 124 -43 263 -96 139 -54 279 -107 312 -119 213 -80 265
-101 265 -106 0 -3 -102 -47 -227 -99 -126 -51 -247 -102 -270 -112 -81 -38
-76 9 -76 -723 0 -626 1 -653 19 -678 23 -31 55 -47 95 -47 41 0 99 56 100 97
0 15 0 262 1 548 0 286 2 523 4 527 2 3 30 -4 62 -16 102 -41 506 -207 537
-221 17 -7 91 -38 165 -68 74 -31 227 -93 340 -140 l205 -84 2 -802 c1 -444
-3 -801 -7 -801 -7 0 -352 140 -555 225 -11 5 -22 9 -25 10 -3 1 -16 7 -30 12
-14 6 -77 32 -140 57 -63 26 -124 51 -135 56 -72 35 -245 102 -272 106 -83 14
-137 -65 -108 -156 9 -28 36 -42 276 -141 123 -51 294 -121 379 -157 85 -35
175 -72 200 -82 25 -9 146 -59 270 -111 149 -61 237 -92 260 -92 30 1 64 13
175 63 11 4 160 65 330 135 171 70 324 133 340 140 17 7 77 32 135 55 58 23
119 48 135 55 17 8 82 35 145 61 279 114 333 139 353 166 20 26 20 44 19 981
0 1040 3 986 -55 1015 -87 46 -1558 642 -1583 642 -29 0 -64 -11 -139 -45 -16
-7 -82 -34 -145 -59 -63 -26 -124 -51 -135 -56 -11 -5 -91 -38 -177 -74 -128
-53 -162 -63 -185 -56 -15 4 -118 43 -228 85 -110 43 -211 81 -225 86 -14 4
-171 64 -350 132 l-325 125 -1 815 c-1 753 -2 818 -18 842 -18 27 -74 56 -241
123 -94 38 -144 58 -440 180 -589 243 -904 371 -925 375 -14 3 -41 0 -60 -7z
m511 -407 c255 -104 478 -196 494 -204 17 -7 77 -32 134 -55 113 -45 163 -69
144 -70 -10 0 -416 -163 -498 -200 -25 -11 -111 -47 -466 -193 -173 -71 -281
-110 -290 -106 -8 5 -165 70 -349 145 -396 162 -783 321 -825 339 -16 7 -36
15 -44 17 -8 2 55 33 140 68 85 35 172 71 194 81 22 9 180 74 350 144 171 70
324 133 340 140 74 32 201 84 206 84 3 1 215 -85 470 -190z m956 -1163 l0
-675 -66 25 c-36 14 -100 38 -141 54 -41 15 -86 33 -100 38 -122 51 -222 83
-248 79 -64 -10 -98 -57 -93 -129 2 -26 48 -75 78 -83 16 -3 42 -13 58 -20 25
-12 265 -104 459 -176 56 -21 63 -26 50 -38 -5 -5 -110 -50 -234 -100 -124
-51 -238 -98 -255 -106 -16 -7 -91 -38 -165 -68 -134 -54 -237 -97 -295 -122
-58 -25 -354 -145 -359 -145 -2 0 -3 361 -3 802 l2 802 80 34 c44 19 130 54
190 79 61 24 124 51 140 58 97 43 882 364 891 364 8 1 11 -183 11 -673z m2238
-1163 c33 -14 71 -30 85 -36 14 -6 27 -11 30 -12 3 -1 16 -7 30 -12 14 -6 77
-32 140 -57 63 -26 124 -50 135 -55 50 -22 98 -42 205 -86 63 -26 129 -52 145
-60 17 -7 77 -32 135 -55 58 -24 123 -51 145 -60 22 -9 50 -21 63 -26 20 -8
-4 -20 -170 -88 -106 -44 -211 -87 -233 -96 -22 -10 -179 -75 -350 -145 -332
-136 -357 -146 -423 -176 l-42 -19 -138 56 c-75 31 -150 62 -167 69 -16 8 -93
39 -170 71 -77 31 -219 89 -315 129 -96 39 -182 75 -190 78 -167 67 -251 105
-249 113 1 5 50 28 108 52 137 55 268 110 308 128 17 8 34 14 37 14 3 0 25 9
49 19 23 11 195 82 381 159 289 119 344 139 365 130 15 -5 53 -21 86 -35z
m1311 -1434 c-1 -702 -3 -803 -16 -810 -8 -5 -105 -46 -215 -90 -110 -45 -274
-113 -365 -151 -91 -38 -169 -71 -175 -72 -5 -1 -27 -10 -49 -19 -21 -9 -40
-17 -42 -17 -2 0 -23 -9 -47 -19 -78 -36 -387 -161 -397 -161 -4 0 -7 360 -7
800 l0 799 31 15 c17 7 105 44 196 81 239 98 352 145 375 155 11 5 70 29 130
53 106 43 268 109 310 128 51 22 261 108 266 109 3 0 6 -361 5 -801z"/>
</g>
</svg>
